<?xml version="1.0" standalone="no"?>
<!DOCTYPE svg PUBLIC "-//W3C//DTD SVG 20010904//EN"
 "http://www.w3.org/TR/2001/REC-SVG-20010904/DTD/svg10.dtd">
<svg version="1.0" xmlns="http://www.w3.org/2000/svg"
 width="700.000000pt" height="700.000000pt" viewBox="0 0 700.000000 700.000000"
 preserveAspectRatio="xMidYMid meet">
<metadata>
Created by potrace 1.11, written by Peter Selinger 2001-2013
</metadata>
<g transform="translate(0.000000,700.000000) scale(0.100000,-0.100000)"
fill="#000000" stroke="none">
<path d="M1520 6993 c-14 -1 -59 -8 -100 -14 -338 -48 -689 -223 -937 -466
-185 -181 -338 -437 -409 -681 -26 -90 -26 -92 -51 -222 -18 -94 -23 -373 -10
-498 19 -178 106 -442 200 -608 61 -108 116 -186 202 -283 315 -358 767 -559
1260 -558 66 0 145 3 175 7 30 4 75 11 100 14 92 13 252 58 360 100 111 44
279 134 335 179 l29 25 -601 600 c-616 617 -638 641 -644 722 -11 155 101 279
251 275 111 -2 102 5 752 -645 l601 -600 24 32 c76 101 172 287 218 422 65
193 89 337 89 546 0 152 -7 215 -35 345 -91 423 -347 795 -719 1042 -181 121
-446 223 -640 248 -30 4 -59 9 -64 12 -9 6 -349 12 -386 6z"/>
<path d="M5287 6984 c-1 -1 -46 -4 -99 -8 -103 -6 -203 -24 -327 -58 -648
-177 -1129 -757 -1198 -1443 -31 -306 23 -606 159 -885 53 -108 146 -259 161
-259 5 -1 278 268 608 598 371 371 613 605 636 617 133 64 300 -5 347 -142 18
-54 14 -140 -10 -191 -12 -24 -233 -253 -622 -642 l-603 -604 68 -45 c183
-120 456 -224 673 -257 127 -19 306 -24 425 -11 543 55 995 349 1269 824 86
149 142 293 187 487 48 205 46 509 -5 740 -63 291 -237 611 -440 807 -261 254
-658 434 -1021 463 -85 7 -204 12 -208 9z"/>
<path d="M1539 3335 c-2 -2 -33 -6 -69 -10 -366 -38 -768 -240 -1030 -518
-144 -153 -240 -309 -338 -552 -20 -48 -60 -193 -68 -245 -2 -14 -9 -54 -16
-90 -13 -69 -17 -394 -5 -470 28 -187 52 -275 116 -435 66 -167 205 -376 342
-515 276 -280 622 -448 1009 -488 86 -9 318 -9 400 0 468 53 935 334 1184 711
130 199 234 452 262 637 3 19 7 40 9 47 10 29 19 189 17 298 -2 102 -18 246
-36 320 -2 11 -9 43 -16 70 -36 159 -140 387 -239 522 l-30 42 -603 -602
c-381 -381 -617 -609 -641 -620 -56 -27 -118 -31 -179 -13 -163 47 -232 242
-134 381 11 17 285 294 608 617 324 323 588 591 588 595 0 11 -94 70 -200 126
-110 59 -308 132 -411 152 -41 8 -139 26 -172 31 -37 6 -343 14 -348 9z"/>
<path d="M5150 3329 c-235 -34 -378 -77 -565 -169 -66 -33 -149 -78 -184 -101
l-64 -41 606 -607 c436 -436 611 -617 622 -645 53 -126 5 -265 -111 -325 -59
-31 -121 -36 -191 -16 -58 16 -63 21 -669 627 l-611 610 -56 -83 c-31 -46 -76
-124 -100 -174 -41 -82 -111 -265 -121 -318 -3 -12 -11 -54 -20 -93 -56 -263
-33 -597 60 -865 143 -411 430 -747 799 -937 151 -78 353 -148 481 -166 21 -3
68 -10 104 -15 68 -9 359 -7 420 4 284 48 513 136 721 276 139 93 279 217 352
311 12 16 31 39 41 51 31 36 121 177 159 249 54 101 106 237 140 367 30 114
31 121 33 376 2 226 0 272 -17 350 -83 384 -278 711 -574 961 -211 178 -524
322 -780 359 -23 3 -52 8 -65 11 -41 9 -351 11 -410 3z"/>
</g>
</svg>
