<?xml version="1.0" encoding="utf-8"?>
<!-- Generator: Adobe Illustrator 23.0.0, SVG Export Plug-In . SVG Version: 6.00 Build 0)  -->
<svg version="1.1" id="Capa_1" xmlns="http://www.w3.org/2000/svg" xmlns:xlink="http://www.w3.org/1999/xlink" x="0px" y="0px"
	 viewBox="0 0 327.9 146.4" style="enable-background:new 0 0 327.9 146.4;" xml:space="preserve">
<style type="text/css">
	.st0{fill:#FFFFFF;}
</style>
<path class="st0" d="M202.7,18.6c0,5-1.9,9.6-5.4,13.1c-3.5,3.5-8.2,5.4-13.1,5.4c-4,0-7.9-1.3-11-3.6l13-13c1.1-1.1,1.1-2.8,0-3.9
	c-1-1-2.9-1-3.9,0l-13,13c-5.5-7.4-4.7-17.6,1.8-24.2c3.5-3.5,8.2-5.4,13.1-5.4c5,0,9.6,1.9,13.1,5.4
	C200.8,8.9,202.7,13.6,202.7,18.6 M184.2,77.6c5,0,9.6-1.9,13.1-5.4c7.2-7.2,7.2-19,0-26.3c-3.5-3.5-8.2-5.4-13.1-5.4
	c-4,0-7.9,1.3-11,3.6l13,13c1.1,1.1,1.1,2.8,0,3.9c-1,1-2.9,1-3.9,0l-13-13c-5.5,7.4-4.7,17.6,1.8,24.2
	C174.5,75.7,179.2,77.6,184.2,77.6 M130.7,31.7c3.5,3.5,8.2,5.4,13.1,5.4c4,0,7.9-1.3,11-3.6l-13-13c-1.1-1.1-1.1-2.8,0-3.9
	c1-1,2.9-1,3.9,0l13,13c5.5-7.4,4.7-17.6-1.8-24.2c-3.5-3.5-8.2-5.4-13.1-5.4c-5,0-9.6,1.9-13.1,5.4c-3.5,3.5-5.4,8.2-5.4,13.1
	C125.2,23.5,127.2,28.2,130.7,31.7 M158.8,48l-13,13c-1,1-2.9,1-3.9,0c-1.1-1.1-1.1-2.8,0-3.9l13-13c-3.2-2.4-7.1-3.6-11-3.6
	c-5,0-9.6,1.9-13.1,5.4c-3.5,3.5-5.4,8.2-5.4,13.1c0,5,1.9,9.6,5.4,13.1c3.5,3.5,8.2,5.4,13.1,5.4c5,0,9.6-1.9,13.1-5.4
	C163.5,65.6,164.2,55.4,158.8,48"/>
<path class="st0" d="M0,106.6h8.7l15.5,21H24v-18.1c0-1.7,0-1.9-1.8-1.9H20v-1h9v1h-1.9c-1.8,0-2.1,0.2-2.1,1.9v26.1h-0.6l-19.6-27"
	/>
<path class="st0" d="M5,132.4c0,2,0.4,2.2,2.3,2.2H9v1H0"/>
<path class="st0" d="M37.9,117.7c5.3,0,8.7,4.4,8.7,9.1c0,4.7-3.4,9.1-8.7,9.1c-5.3,0-8.7-4.4-8.7-9.1
	C29.2,122.1,32.6,117.7,37.9,117.7 M43,125.2c0-3.6-0.4-6.8-5-6.8c-4.6,0-5,3.3-5,6.8v3.2c0,3.6,0.4,6.8,5,6.8c4.6,0,5-3.3,5-6.8
	V125.2z"/>
<path class="st0" d="M50,119.6h-3v-0.9c4,0.1,5.7-2.1,6.4-6.1H54v6h6v1h-6V133c0,1.7,0.6,2.2,1.9,2.2c2,0,2.9-1.9,3.2-2.6l0.6,0.1
	c-0.3,1-1.7,3.1-4.7,3.1c-2.9,0-5-0.9-5-3.6V119.6z"/>
<path class="st0" d="M62,119.6h-3v-0.9c4,0.1,5.7-2.1,6.4-6.1H66v6h5v1h-5V133c0,1.7,0.6,2.2,1.9,2.2c2,0,2.9-1.9,3.2-2.6l0.6,0.1
	c-0.3,1-1.7,3.1-4.7,3.1c-2.9,0-5-0.9-5-3.6V119.6z"/>
<path class="st0" d="M80.7,117.7c5.3,0,8.7,4.4,8.7,9.1c0,4.7-3.4,9.1-8.7,9.1c-5.3,0-8.7-4.4-8.7-9.1
	C72,122.1,75.4,117.7,80.7,117.7 M85,125.2c0-3.6,0.1-6.8-4.5-6.8c-4.6,0-4.5,3.3-4.5,6.8v3.2c0,3.6-0.1,6.8,4.5,6.8
	c4.6,0,4.5-3.3,4.5-6.8V125.2z"/>
<path class="st0" d="M91.7,119.6H89v-1h19v1h-3.4L110,132l3.9-9c0.5-1.1,0.7-1.7,0.7-2.3c0-0.8-0.5-1.1-1.9-1.1H111v-1h8v0.7
	c-3,0-3.2,1.2-4.1,3.3l-6.2,14h-0.3l-4.5-10.2l-4.3,10.2h-0.3L91.7,119.6z M100.9,131.7l2.6-6.1l-2.7-6.1h-5.1L100.9,131.7z"/>
<path class="st0" d="M133,133.2c0,0.8,0.3,1.8,1.4,1.8c0.9,0,1.6-0.8,2.2-1.6l0.5,0.3c-0.8,1.4-1.8,2.3-3.6,2.3
	c-1.9,0-3.3-1.4-3.6-2.4h-0.1c-1.4,2-3.2,2.4-5.9,2.4c-3.2,0-5.1-1.8-5.1-4.5c0-4.6,6.1-5.9,10.3-5.9h0.8v-4.8
	c0-1.9-1.8-2.4-3.4-2.4c-1.2,0-4,0.5-4,1.9c0,1,1.3,0.5,1.3,2.4c0,1-0.8,1.7-1.9,1.7c-1.1,0-1.8-0.9-1.8-2.3c0-2.1,2-4.4,6.1-4.4
	c3.1,0,6.6,1.6,6.6,4.7V133.2z M129.3,126.6c-3,0-6.7,0-6.7,4.4c0,2.3,0.4,4,3,4c3.1,0,4.4-2.3,4.4-3.1v-5.2H129.3z"/>
<path class="st0" d="M147.8,132.2l3.8-9.8c0.3-0.9,0.5-1.4,0.5-1.9c0-0.8-0.7-1-2.4-1H148v-1h8v0.7c-3,0-2.7,0.5-3.7,2.8l-3.6,9.2
	c-1.1,2.9-2.2,5.5-2.3,6.2c-1.6,6.4-2.3,9-5.2,9c-1.3,0-2.2-0.8-2.2-2.1c0-1.1,0.8-2,2-2c1,0,1.7,0.8,1.7,1.6c0,0.3,0,0.4,0,0.7
	c0,0.2,0.1,0.4,0.3,0.4c1.4,0,2.7-6.8,3.1-8.1l-7.6-17.3H136v-1h9v1h-2.6L147.8,132.2z"/>
<path class="st0" d="M189,115.6h-0.7c0-4-4-9.1-9-9.1c-7.3,0-8.3,9.1-8.3,14.5c0,5.4,1,14.6,8.3,14.6c5.2,0,9-5,9-10h0.7v9h-0.7
	c0,0-0.4-1.9-1.4-1.9c-1.2,0-3.4,3.3-7.6,3.3c-6.9,0-12.9-6.6-12.9-15c0-8.4,6-15,12.9-15c4.2,0,6,3.2,7.5,3.2
	c1.1,0,1.5-0.5,1.5-1.5h0.7V115.6z"/>
<path class="st0" d="M200.4,117.7c5.3,0,8.7,4.4,8.7,9.1c0,4.7-3.4,9.1-8.7,9.1c-5.3,0-8.7-4.4-8.7-9.1
	C191.8,122.1,195.2,117.7,200.4,117.7 M205,125.2c0-3.6,0.1-6.8-4.5-6.8c-4.6,0-4.5,3.3-4.5,6.8v3.2c0,3.6-0.1,6.8,4.5,6.8
	c4.6,0,4.5-3.3,4.5-6.8V125.2z"/>
<path class="st0" d="M210,134.6h3v-15h-3v-1h2.8c2,0,2.2,0.1,3.2-0.8v3.8h0.3c1.1-2,2.8-3.7,5.9-3.7c2.6,0,5.2,0.7,5.6,4.7h0.1
	c0.8-3,2.7-4.7,5.7-4.6c4.2,0,5.4,2.2,5.4,4.8v11.9h4v1h-10v-1h3V122c0-2.9-1.2-3.6-2.8-3.6c-2.4,0-4.2,2.6-5.2,5.4v10.7h3v1h-10v-1
	h3v-13.4c0-2-1-2.8-2.6-2.8c-2.5,0-4.4,1.9-5.4,4.8v11.4h3v1h-9V134.6z"/>
<path class="st0" d="M242,134.6h3v-15h-3v-1h3.3c2,0,2.7,0.1,3.7-0.8v3.8h-0.2c1.1-2,2.8-3.7,5.9-3.7c2.6,0,5.2,0.7,5.6,4.7h0.1
	c0.8-3,2.9-4.7,6-4.6c4.2,0,5.6,2.2,5.6,4.8v11.9h3v1h-10v-1h3V122c0-2.9-1.2-3.6-2.8-3.6c-2.4,0-4.2,2.6-5.2,5.4v10.7h3v1h-9v-1h3
	v-13.4c0-2-1-2.8-2.6-2.8c-2.5,0-4.4,1.9-5.4,4.8v11.4h3v1h-10V134.6z"/>
<path class="st0" d="M284.2,117.7c5.3,0,8.7,4.4,8.7,9.1c0,4.7-3.4,9.1-8.7,9.1c-5.3,0-8.7-4.4-8.7-9.1
	C275.6,122.1,279,117.7,284.2,117.7 M289,125.2c0-3.6-0.4-6.8-5-6.8c-4.6,0-5,3.3-5,6.8v3.2c0,3.6,0.4,6.8,5,6.8c4.6,0,5-3.3,5-6.8
	V125.2z"/>
<path class="st0" d="M297,119.6h-4v-1h3.6c2,0,2.4,0.1,3.4-0.8v3.8h0.1c1.1-2,3.2-4,6.2-4c4.4,0,5.7,2.4,5.7,4.8v12.2h3v1h-10v-1h3
	v-13.2c0-2.3-0.9-3-2.2-3c-3.4,0-4.8,3.4-5.8,4.8v11.4h3v1h-10v-1h4V119.6z"/>
<path class="st0" d="M316,129.6h0.5c0.3,2,1.4,5.7,5.7,5.7c2.3,0,4-1.5,4-3.8c0-3.2-2.5-3.3-4.6-3.5c-2.7-0.3-5.2-0.7-5.2-4.9
	c0-2.9,1.9-5.3,5.1-5.3c2.2,0,3.8,1.4,4.2,1.4c0.2,0,0.4-0.3,0.4-0.9v-0.7h0.4l0.2,5H326c-0.3-2-1.5-4.3-4.7-4.3
	c-2.1,0-3.8,1.2-3.8,3.3c0,2.1,1.6,2.9,4.3,3.1l1.4,0.1c3.3,0.2,4.7,2,4.7,4.8c0,3.8-2.5,6.3-5.7,6.3c-3.2,0-4.2-1.8-5-1.8
	c-0.5,0-0.4,0.5-0.5,1.5H316L316,129.6z"/>
</svg>
