<?xml version="1.0" encoding="utf-8"?>
<!-- Generator: Adobe Illustrator 23.0.0, SVG Export Plug-In . SVG Version: 6.00 Build 0)  -->
<svg version="1.1" id="Capa_1" xmlns="http://www.w3.org/2000/svg" xmlns:xlink="http://www.w3.org/1999/xlink" x="0px" y="0px"
	 viewBox="0 0 43.4 43.4" style="enable-background:new 0 0 43.4 43.4;" xml:space="preserve">
<style type="text/css">
	.st0{fill:#8B6A4F;}
</style>
<path class="st0" d="M43.4,10.4c0,2.8-1.1,5.4-3,7.4c-2,2-4.6,3-7.3,3c-2.2,0-4.4-0.7-6.2-2l7.3-7.3c0.6-0.6,0.6-1.6,0-2.2
	c-0.6-0.6-1.6-0.6-2.2,0l-7.3,7.3c-3.1-4.1-2.6-9.9,1-13.5c2-2,4.6-3,7.4-3c2.8,0,5.4,1.1,7.4,3C42.3,5,43.4,7.6,43.4,10.4 M33,43.4
	c2.8,0,5.4-1.1,7.4-3c4.1-4.1,4.1-10.6,0-14.7c-2-2-4.6-3-7.3-3c-2.2,0-4.4,0.7-6.2,2l7.3,7.3c0.6,0.6,0.6,1.6,0,2.2
	c-0.6,0.6-1.6,0.6-2.2,0l-7.3-7.3c-3.1,4.1-2.6,9.9,1,13.5C27.6,42.3,30.2,43.4,33,43.4 M3,17.7c2,2,4.6,3,7.4,3
	c2.2,0,4.4-0.7,6.2-2l-7.3-7.3c-0.6-0.6-0.6-1.6,0-2.2c0.6-0.6,1.6-0.6,2.2,0l7.3,7.3c3.1-4.1,2.7-9.9-1-13.5c-2-2-4.6-3-7.4-3
	C7.6,0,5,1.1,3,3c-2,2-3,4.6-3,7.4C0,13.2,1.1,15.8,3,17.7 M18.8,26.9l-7.3,7.3c-0.6,0.6-1.6,0.6-2.2,0c-0.6-0.6-0.6-1.6,0-2.2
	l7.3-7.3c-1.8-1.3-4-2-6.2-2c-2.8,0-5.4,1.1-7.4,3c-2,2-3,4.6-3,7.4c0,2.8,1.1,5.4,3,7.3c2,2,4.6,3,7.4,3c2.8,0,5.4-1.1,7.4-3
	C21.4,36.7,21.8,31,18.8,26.9"/>
</svg>
